#N canvas 531 120 605 428 12;
#X obj 90 357 dac~ 1;
#X obj 93 165 *~ 0.3;
#X obj 288 93 metro 2000;
#X obj 281 56 loadbang;
#X obj 284 123 bng 15 250 50 0 empty empty empty 17 7 0 10 -262144
-1 -1;
#X obj 272 236 line~;
#X obj 159 125 *~;
#X obj 188 35 osc~ 999;
#X obj 283 147 t b b;
#X msg 288 176 0 1000;
#X msg 360 169 1;
#X obj 258 289 delwrite~ deli 500;
#X obj 258 331 delread~ deli 175;
#X obj 454 89 adc~ 1;
#X obj 441 300 *~ 0.8;
#X obj 512 135 loadbang;
#X msg 519 203 \; pd dsp 1;
#X connect 1 0 0 0;
#X connect 1 0 11 0;
#X connect 2 0 4 0;
#X connect 3 0 2 0;
#X connect 4 0 8 0;
#X connect 5 0 6 1;
#X connect 6 0 1 0;
#X connect 7 0 6 0;
#X connect 8 0 9 0;
#X connect 8 1 10 0;
#X connect 9 0 5 0;
#X connect 10 0 5 0;
#X connect 12 0 0 0;
#X connect 12 0 14 0;
#X connect 13 0 11 0;
#X connect 14 0 11 0;
#X connect 15 0 16 0;
