#N canvas 276 257 862 471 12;
#X obj 239 297 dac~;
#X obj 333 104 osc~ 2;
#X obj 319 147 *~;
#X obj 229 160 *~;
#X obj 232 79 osc~ 330;
#X obj 249 114 osc~ 1;
#X obj 322 66 osc~ 220;
#X obj 408 175 *~;
#X obj 411 94 osc~ 900;
#X obj 425 134 osc~ 0.1;
#X obj 396 218 *~ 0.2;
#X connect 1 0 2 1;
#X connect 2 0 0 1;
#X connect 3 0 0 0;
#X connect 4 0 3 0;
#X connect 5 0 3 1;
#X connect 6 0 2 0;
#X connect 7 0 10 0;
#X connect 8 0 7 0;
#X connect 9 0 7 1;
#X connect 10 0 0 1;
